<mxfile host="app.diagrams.net" agent="Mozilla/5.0 (Windows NT 10.0; Win64; x64) AppleWebKit/537.36 (KHTML, like Gecko) Chrome/135.0.0.0 Safari/537.36 Edg/135.0.0.0" version="26.2.14">
  <diagram name="Page-1" id="mqBJOKfm_-yYsU1bV-Db">
    <mxGraphModel dx="850" dy="438" grid="1" gridSize="10" guides="1" tooltips="1" connect="1" arrows="1" fold="1" page="1" pageScale="1" pageWidth="850" pageHeight="1100" math="0" shadow="0">
      <root>
        <mxCell id="0" />
        <mxCell id="1" parent="0" />
        <mxCell id="twknoeJkFPn5ZfpLh6MR-4" style="edgeStyle=orthogonalEdgeStyle;rounded=1;orthogonalLoop=1;jettySize=auto;html=1;exitX=1;exitY=0.5;exitDx=0;exitDy=0;entryX=0;entryY=0.5;entryDx=0;entryDy=0;sketch=1;curveFitting=1;jiggle=2;labelBackgroundColor=none;strokeColor=#E07A5F;fontColor=default;" edge="1" parent="1" source="twknoeJkFPn5ZfpLh6MR-2" target="twknoeJkFPn5ZfpLh6MR-3">
          <mxGeometry relative="1" as="geometry" />
        </mxCell>
        <mxCell id="twknoeJkFPn5ZfpLh6MR-2" value="&lt;font style=&quot;font-size: 8px;&quot;&gt;Start&lt;/font&gt;" style="rounded=1;whiteSpace=wrap;html=1;arcSize=50;sketch=1;curveFitting=1;jiggle=2;labelBackgroundColor=none;fillColor=#F2CC8F;strokeColor=#E07A5F;fontColor=#393C56;" vertex="1" parent="1">
          <mxGeometry x="4" y="83" width="56" height="27" as="geometry" />
        </mxCell>
        <mxCell id="twknoeJkFPn5ZfpLh6MR-6" style="edgeStyle=orthogonalEdgeStyle;rounded=1;orthogonalLoop=1;jettySize=auto;html=1;exitX=1;exitY=0.5;exitDx=0;exitDy=0;entryX=0;entryY=0.5;entryDx=0;entryDy=0;sketch=1;curveFitting=1;jiggle=2;labelBackgroundColor=none;strokeColor=#E07A5F;fontColor=default;" edge="1" parent="1" source="twknoeJkFPn5ZfpLh6MR-3" target="twknoeJkFPn5ZfpLh6MR-5">
          <mxGeometry relative="1" as="geometry" />
        </mxCell>
        <mxCell id="twknoeJkFPn5ZfpLh6MR-3" value="&lt;font style=&quot;font-size: 8px;&quot;&gt;Initialize API Request&lt;/font&gt;" style="rounded=1;whiteSpace=wrap;html=1;sketch=1;curveFitting=1;jiggle=2;labelBackgroundColor=none;fillColor=#F2CC8F;strokeColor=#E07A5F;fontColor=#393C56;" vertex="1" parent="1">
          <mxGeometry x="100" y="78" width="66" height="37" as="geometry" />
        </mxCell>
        <mxCell id="twknoeJkFPn5ZfpLh6MR-8" style="edgeStyle=orthogonalEdgeStyle;rounded=1;orthogonalLoop=1;jettySize=auto;html=1;exitX=1;exitY=0.5;exitDx=0;exitDy=0;entryX=0;entryY=0.5;entryDx=0;entryDy=0;sketch=1;curveFitting=1;jiggle=2;labelBackgroundColor=none;strokeColor=#E07A5F;fontColor=default;" edge="1" parent="1" source="twknoeJkFPn5ZfpLh6MR-5" target="twknoeJkFPn5ZfpLh6MR-7">
          <mxGeometry relative="1" as="geometry" />
        </mxCell>
        <mxCell id="twknoeJkFPn5ZfpLh6MR-5" value="&lt;font style=&quot;font-size: 8px;&quot;&gt;Choose Http Method&lt;/font&gt;" style="rounded=1;whiteSpace=wrap;html=1;sketch=1;curveFitting=1;jiggle=2;labelBackgroundColor=none;fillColor=#F2CC8F;strokeColor=#E07A5F;fontColor=#393C56;" vertex="1" parent="1">
          <mxGeometry x="200" y="80.88" width="70" height="31.25" as="geometry" />
        </mxCell>
        <mxCell id="twknoeJkFPn5ZfpLh6MR-30" style="edgeStyle=orthogonalEdgeStyle;rounded=1;sketch=1;hachureGap=4;jiggle=2;curveFitting=1;orthogonalLoop=1;jettySize=auto;html=1;exitX=1;exitY=0.5;exitDx=0;exitDy=0;entryX=0.5;entryY=1;entryDx=0;entryDy=0;strokeColor=#E07A5F;fontFamily=Architects Daughter;fontSource=https%3A%2F%2Ffonts.googleapis.com%2Fcss%3Ffamily%3DArchitects%2BDaughter;fontColor=#393C56;fillColor=#F2CC8F;" edge="1" parent="1" source="twknoeJkFPn5ZfpLh6MR-7" target="twknoeJkFPn5ZfpLh6MR-12">
          <mxGeometry relative="1" as="geometry" />
        </mxCell>
        <mxCell id="twknoeJkFPn5ZfpLh6MR-34" style="edgeStyle=orthogonalEdgeStyle;rounded=1;sketch=1;hachureGap=4;jiggle=2;curveFitting=1;orthogonalLoop=1;jettySize=auto;html=1;exitX=0.5;exitY=1;exitDx=0;exitDy=0;entryX=0.5;entryY=0;entryDx=0;entryDy=0;strokeColor=#E07A5F;fontFamily=Architects Daughter;fontSource=https%3A%2F%2Ffonts.googleapis.com%2Fcss%3Ffamily%3DArchitects%2BDaughter;fontColor=#393C56;fillColor=#F2CC8F;dashed=1;" edge="1" parent="1" source="twknoeJkFPn5ZfpLh6MR-7" target="twknoeJkFPn5ZfpLh6MR-32">
          <mxGeometry relative="1" as="geometry" />
        </mxCell>
        <mxCell id="twknoeJkFPn5ZfpLh6MR-7" value="&lt;font style=&quot;font-size: 8px;&quot;&gt;Is Method Get&lt;/font&gt;" style="rhombus;whiteSpace=wrap;html=1;sketch=1;curveFitting=1;jiggle=2;labelBackgroundColor=none;fillColor=#F2CC8F;strokeColor=#E07A5F;fontColor=#393C56;rounded=1;" vertex="1" parent="1">
          <mxGeometry x="300" y="68.12" width="70" height="56.5" as="geometry" />
        </mxCell>
        <mxCell id="twknoeJkFPn5ZfpLh6MR-17" style="edgeStyle=orthogonalEdgeStyle;rounded=1;sketch=1;hachureGap=4;jiggle=2;curveFitting=1;orthogonalLoop=1;jettySize=auto;html=1;exitX=1;exitY=0.5;exitDx=0;exitDy=0;entryX=0;entryY=0.5;entryDx=0;entryDy=0;strokeColor=#E07A5F;fontFamily=Architects Daughter;fontSource=https%3A%2F%2Ffonts.googleapis.com%2Fcss%3Ffamily%3DArchitects%2BDaughter;fontColor=#393C56;fillColor=#F2CC8F;" edge="1" parent="1" source="twknoeJkFPn5ZfpLh6MR-12" target="twknoeJkFPn5ZfpLh6MR-16">
          <mxGeometry relative="1" as="geometry" />
        </mxCell>
        <mxCell id="twknoeJkFPn5ZfpLh6MR-12" value="&lt;font style=&quot;font-size: 8px;&quot;&gt;By Order Id&lt;/font&gt;" style="shape=parallelogram;perimeter=parallelogramPerimeter;whiteSpace=wrap;html=1;fixedSize=1;rounded=1;sketch=1;hachureGap=4;jiggle=2;curveFitting=1;strokeColor=#E07A5F;fontFamily=Architects Daughter;fontSource=https%3A%2F%2Ffonts.googleapis.com%2Fcss%3Ffamily%3DArchitects%2BDaughter;fontColor=#393C56;fillColor=#F2CC8F;" vertex="1" parent="1">
          <mxGeometry x="380" y="30" width="80" height="24.01" as="geometry" />
        </mxCell>
        <mxCell id="twknoeJkFPn5ZfpLh6MR-18" style="edgeStyle=orthogonalEdgeStyle;rounded=1;sketch=1;hachureGap=4;jiggle=2;curveFitting=1;orthogonalLoop=1;jettySize=auto;html=1;exitX=1;exitY=0.5;exitDx=0;exitDy=0;strokeColor=#E07A5F;fontFamily=Architects Daughter;fontSource=https%3A%2F%2Ffonts.googleapis.com%2Fcss%3Ffamily%3DArchitects%2BDaughter;fontColor=#393C56;fillColor=#F2CC8F;entryX=0;entryY=0.75;entryDx=0;entryDy=0;" edge="1" parent="1" source="twknoeJkFPn5ZfpLh6MR-13" target="twknoeJkFPn5ZfpLh6MR-16">
          <mxGeometry relative="1" as="geometry">
            <mxPoint x="674" y="103" as="targetPoint" />
          </mxGeometry>
        </mxCell>
        <mxCell id="twknoeJkFPn5ZfpLh6MR-13" value="&lt;font style=&quot;font-size: 8px;&quot;&gt;By Account Id&lt;/font&gt;" style="shape=parallelogram;perimeter=parallelogramPerimeter;whiteSpace=wrap;html=1;fixedSize=1;rounded=1;sketch=1;hachureGap=4;jiggle=2;curveFitting=1;strokeColor=#E07A5F;fontFamily=Architects Daughter;fontSource=https%3A%2F%2Ffonts.googleapis.com%2Fcss%3Ffamily%3DArchitects%2BDaughter;fontColor=#393C56;fillColor=#F2CC8F;" vertex="1" parent="1">
          <mxGeometry x="370" y="119.75" width="80" height="30" as="geometry" />
        </mxCell>
        <mxCell id="twknoeJkFPn5ZfpLh6MR-21" style="edgeStyle=orthogonalEdgeStyle;rounded=1;sketch=1;hachureGap=4;jiggle=2;curveFitting=1;orthogonalLoop=1;jettySize=auto;html=1;exitX=1;exitY=0.5;exitDx=0;exitDy=0;entryX=0;entryY=0.5;entryDx=0;entryDy=0;strokeColor=#E07A5F;fontFamily=Architects Daughter;fontSource=https%3A%2F%2Ffonts.googleapis.com%2Fcss%3Ffamily%3DArchitects%2BDaughter;fontColor=#393C56;fillColor=#F2CC8F;" edge="1" parent="1" source="twknoeJkFPn5ZfpLh6MR-16" target="twknoeJkFPn5ZfpLh6MR-19">
          <mxGeometry relative="1" as="geometry" />
        </mxCell>
        <mxCell id="twknoeJkFPn5ZfpLh6MR-16" value="&lt;font style=&quot;font-size: 8px;&quot;&gt;Fetch Form the&amp;nbsp;&lt;/font&gt;&lt;div&gt;&lt;font style=&quot;font-size: 8px;&quot;&gt;Database&lt;/font&gt;&lt;/div&gt;" style="rounded=1;whiteSpace=wrap;html=1;sketch=1;curveFitting=1;jiggle=2;labelBackgroundColor=none;fillColor=#F2CC8F;strokeColor=#E07A5F;fontColor=#393C56;" vertex="1" parent="1">
          <mxGeometry x="480" y="83" width="70" height="28" as="geometry" />
        </mxCell>
        <mxCell id="twknoeJkFPn5ZfpLh6MR-23" style="edgeStyle=orthogonalEdgeStyle;rounded=1;sketch=1;hachureGap=4;jiggle=2;curveFitting=1;orthogonalLoop=1;jettySize=auto;html=1;exitX=1;exitY=0.5;exitDx=0;exitDy=0;entryX=0;entryY=0.5;entryDx=0;entryDy=0;strokeColor=#E07A5F;fontFamily=Architects Daughter;fontSource=https%3A%2F%2Ffonts.googleapis.com%2Fcss%3Ffamily%3DArchitects%2BDaughter;fontColor=#393C56;fillColor=#F2CC8F;" edge="1" parent="1" source="twknoeJkFPn5ZfpLh6MR-19" target="twknoeJkFPn5ZfpLh6MR-22">
          <mxGeometry relative="1" as="geometry" />
        </mxCell>
        <mxCell id="twknoeJkFPn5ZfpLh6MR-19" value="&lt;font style=&quot;font-size: 8px;&quot;&gt;Package Data in&lt;/font&gt;&lt;div&gt;&lt;font style=&quot;font-size: 8px;&quot;&gt;&amp;nbsp;JSON&lt;/font&gt;&lt;/div&gt;" style="rounded=1;whiteSpace=wrap;html=1;sketch=1;curveFitting=1;jiggle=2;labelBackgroundColor=none;fillColor=#F2CC8F;strokeColor=#E07A5F;fontColor=#393C56;" vertex="1" parent="1">
          <mxGeometry x="570" y="81" width="70" height="32" as="geometry" />
        </mxCell>
        <mxCell id="twknoeJkFPn5ZfpLh6MR-25" style="edgeStyle=orthogonalEdgeStyle;rounded=1;sketch=1;hachureGap=4;jiggle=2;curveFitting=1;orthogonalLoop=1;jettySize=auto;html=1;exitX=1;exitY=0.5;exitDx=0;exitDy=0;entryX=0;entryY=0.5;entryDx=0;entryDy=0;strokeColor=#E07A5F;fontFamily=Architects Daughter;fontSource=https%3A%2F%2Ffonts.googleapis.com%2Fcss%3Ffamily%3DArchitects%2BDaughter;fontColor=#393C56;fillColor=#F2CC8F;" edge="1" parent="1" source="twknoeJkFPn5ZfpLh6MR-22" target="twknoeJkFPn5ZfpLh6MR-24">
          <mxGeometry relative="1" as="geometry" />
        </mxCell>
        <mxCell id="twknoeJkFPn5ZfpLh6MR-22" value="&lt;span data-lucid-content=&quot;{&amp;quot;t&amp;quot;:&amp;quot;Send Response to Client&amp;quot;,&amp;quot;m&amp;quot;:[{&amp;quot;s&amp;quot;:0,&amp;quot;n&amp;quot;:&amp;quot;p&amp;quot;,&amp;quot;v&amp;quot;:1.2},{&amp;quot;s&amp;quot;:0,&amp;quot;n&amp;quot;:&amp;quot;s&amp;quot;,&amp;quot;v&amp;quot;:22.22222222222222,&amp;quot;e&amp;quot;:23},{&amp;quot;s&amp;quot;:0,&amp;quot;n&amp;quot;:&amp;quot;fsp&amp;quot;,&amp;quot;v&amp;quot;:&amp;quot;ss_presetShapeStyle2_textStyle&amp;quot;,&amp;quot;e&amp;quot;:23},{&amp;quot;s&amp;quot;:0,&amp;quot;n&amp;quot;:&amp;quot;fsp2&amp;quot;,&amp;quot;v&amp;quot;:&amp;quot;ss_presetShapeStyle2_textStyle&amp;quot;,&amp;quot;e&amp;quot;:23}]}&quot; data-lucid-type=&quot;application/vnd.lucid.text&quot;&gt;&lt;span style=&quot;color: rgb(0, 0, 0);&quot;&gt;&lt;font style=&quot;font-size: 8px;&quot;&gt;Send Response to Client&lt;/font&gt;&lt;/span&gt;&lt;/span&gt;" style="whiteSpace=wrap;html=1;aspect=fixed;rounded=1;sketch=1;hachureGap=4;jiggle=2;curveFitting=1;strokeColor=#E07A5F;fontFamily=Architects Daughter;fontSource=https%3A%2F%2Ffonts.googleapis.com%2Fcss%3Ffamily%3DArchitects%2BDaughter;fontColor=#393C56;fillColor=#F2CC8F;" vertex="1" parent="1">
          <mxGeometry x="670" y="80" width="39.75" height="39.75" as="geometry" />
        </mxCell>
        <mxCell id="twknoeJkFPn5ZfpLh6MR-24" value="&lt;font style=&quot;font-size: 8px;&quot;&gt;END&lt;/font&gt;" style="rounded=1;whiteSpace=wrap;html=1;arcSize=50;sketch=1;curveFitting=1;jiggle=2;labelBackgroundColor=none;fillColor=#F2CC8F;strokeColor=#E07A5F;fontColor=#393C56;" vertex="1" parent="1">
          <mxGeometry x="740" y="82.87" width="56" height="27" as="geometry" />
        </mxCell>
        <mxCell id="twknoeJkFPn5ZfpLh6MR-26" value="Yes" style="text;html=1;align=center;verticalAlign=middle;whiteSpace=wrap;rounded=0;fontFamily=Architects Daughter;fontSource=https%3A%2F%2Ffonts.googleapis.com%2Fcss%3Ffamily%3DArchitects%2BDaughter;fontColor=#393C56;" vertex="1" parent="1">
          <mxGeometry x="436" y="40" width="60" height="30" as="geometry" />
        </mxCell>
        <mxCell id="twknoeJkFPn5ZfpLh6MR-27" value="Yes" style="text;html=1;align=center;verticalAlign=middle;whiteSpace=wrap;rounded=0;fontFamily=Architects Daughter;fontSource=https%3A%2F%2Ffonts.googleapis.com%2Fcss%3Ffamily%3DArchitects%2BDaughter;fontColor=#393C56;" vertex="1" parent="1">
          <mxGeometry x="440" y="128" width="60" height="30" as="geometry" />
        </mxCell>
        <mxCell id="twknoeJkFPn5ZfpLh6MR-31" style="edgeStyle=orthogonalEdgeStyle;rounded=1;sketch=1;hachureGap=4;jiggle=2;curveFitting=1;orthogonalLoop=1;jettySize=auto;html=1;exitX=1;exitY=0.5;exitDx=0;exitDy=0;entryX=0.625;entryY=0;entryDx=0;entryDy=0;entryPerimeter=0;strokeColor=#E07A5F;fontFamily=Architects Daughter;fontSource=https%3A%2F%2Ffonts.googleapis.com%2Fcss%3Ffamily%3DArchitects%2BDaughter;fontColor=#393C56;fillColor=#F2CC8F;" edge="1" parent="1" source="twknoeJkFPn5ZfpLh6MR-7" target="twknoeJkFPn5ZfpLh6MR-13">
          <mxGeometry relative="1" as="geometry" />
        </mxCell>
        <mxCell id="twknoeJkFPn5ZfpLh6MR-38" style="edgeStyle=orthogonalEdgeStyle;rounded=1;sketch=1;hachureGap=4;jiggle=2;curveFitting=1;orthogonalLoop=1;jettySize=auto;html=1;exitX=1;exitY=0.5;exitDx=0;exitDy=0;entryX=0;entryY=0.5;entryDx=0;entryDy=0;strokeColor=#E07A5F;fontFamily=Architects Daughter;fontSource=https%3A%2F%2Ffonts.googleapis.com%2Fcss%3Ffamily%3DArchitects%2BDaughter;fontColor=#393C56;fillColor=#F2CC8F;dashed=1;" edge="1" parent="1" source="twknoeJkFPn5ZfpLh6MR-32" target="twknoeJkFPn5ZfpLh6MR-36">
          <mxGeometry relative="1" as="geometry" />
        </mxCell>
        <mxCell id="twknoeJkFPn5ZfpLh6MR-40" style="edgeStyle=orthogonalEdgeStyle;rounded=1;sketch=1;hachureGap=4;jiggle=2;curveFitting=1;orthogonalLoop=1;jettySize=auto;html=1;exitX=0.5;exitY=1;exitDx=0;exitDy=0;entryX=0.5;entryY=0;entryDx=0;entryDy=0;strokeColor=#E07A5F;fontFamily=Architects Daughter;fontSource=https%3A%2F%2Ffonts.googleapis.com%2Fcss%3Ffamily%3DArchitects%2BDaughter;fontColor=#393C56;fillColor=#F2CC8F;" edge="1" parent="1" source="twknoeJkFPn5ZfpLh6MR-32" target="twknoeJkFPn5ZfpLh6MR-39">
          <mxGeometry relative="1" as="geometry" />
        </mxCell>
        <mxCell id="twknoeJkFPn5ZfpLh6MR-32" value="&lt;font style=&quot;font-size: 8px;&quot;&gt;Is Method Post&lt;/font&gt;" style="rhombus;whiteSpace=wrap;html=1;sketch=1;curveFitting=1;jiggle=2;labelBackgroundColor=none;fillColor=#F2CC8F;strokeColor=#E07A5F;fontColor=#393C56;rounded=1;" vertex="1" parent="1">
          <mxGeometry x="295" y="180" width="80" height="56.5" as="geometry" />
        </mxCell>
        <mxCell id="twknoeJkFPn5ZfpLh6MR-35" value="No" style="text;html=1;align=center;verticalAlign=middle;whiteSpace=wrap;rounded=0;fontFamily=Architects Daughter;fontSource=https%3A%2F%2Ffonts.googleapis.com%2Fcss%3Ffamily%3DArchitects%2BDaughter;fontColor=#393C56;" vertex="1" parent="1">
          <mxGeometry x="294" y="131" width="60" height="30" as="geometry" />
        </mxCell>
        <mxCell id="twknoeJkFPn5ZfpLh6MR-36" value="&lt;font style=&quot;font-size: 8px;&quot;&gt;Is Method Put&lt;/font&gt;" style="rhombus;whiteSpace=wrap;html=1;sketch=1;curveFitting=1;jiggle=2;labelBackgroundColor=none;fillColor=#F2CC8F;strokeColor=#E07A5F;fontColor=#393C56;rounded=1;" vertex="1" parent="1">
          <mxGeometry x="420" y="180" width="70" height="56.5" as="geometry" />
        </mxCell>
        <mxCell id="twknoeJkFPn5ZfpLh6MR-37" value="No" style="text;html=1;align=center;verticalAlign=middle;whiteSpace=wrap;rounded=0;fontFamily=Architects Daughter;fontSource=https%3A%2F%2Ffonts.googleapis.com%2Fcss%3Ffamily%3DArchitects%2BDaughter;fontColor=#393C56;" vertex="1" parent="1">
          <mxGeometry x="364" y="186" width="60" height="30" as="geometry" />
        </mxCell>
        <mxCell id="twknoeJkFPn5ZfpLh6MR-43" style="edgeStyle=orthogonalEdgeStyle;rounded=1;sketch=1;hachureGap=4;jiggle=2;curveFitting=1;orthogonalLoop=1;jettySize=auto;html=1;exitX=0.5;exitY=1;exitDx=0;exitDy=0;entryX=0.5;entryY=0;entryDx=0;entryDy=0;strokeColor=#E07A5F;fontFamily=Architects Daughter;fontSource=https%3A%2F%2Ffonts.googleapis.com%2Fcss%3Ffamily%3DArchitects%2BDaughter;fontColor=#393C56;fillColor=#F2CC8F;" edge="1" parent="1" source="twknoeJkFPn5ZfpLh6MR-39" target="twknoeJkFPn5ZfpLh6MR-42">
          <mxGeometry relative="1" as="geometry" />
        </mxCell>
        <mxCell id="twknoeJkFPn5ZfpLh6MR-39" value="&lt;font style=&quot;font-size: 8px;&quot;&gt;Validate The Output&lt;/font&gt;" style="rounded=1;whiteSpace=wrap;html=1;sketch=1;curveFitting=1;jiggle=2;labelBackgroundColor=none;fillColor=#F2CC8F;strokeColor=#E07A5F;fontColor=#393C56;" vertex="1" parent="1">
          <mxGeometry x="300" y="280" width="70" height="31.25" as="geometry" />
        </mxCell>
        <mxCell id="twknoeJkFPn5ZfpLh6MR-41" value="Yes" style="text;html=1;align=center;verticalAlign=middle;whiteSpace=wrap;rounded=0;fontFamily=Architects Daughter;fontSource=https%3A%2F%2Ffonts.googleapis.com%2Fcss%3Ffamily%3DArchitects%2BDaughter;fontColor=#393C56;" vertex="1" parent="1">
          <mxGeometry x="315" y="240" width="60" height="30" as="geometry" />
        </mxCell>
        <mxCell id="twknoeJkFPn5ZfpLh6MR-45" style="edgeStyle=orthogonalEdgeStyle;rounded=1;sketch=1;hachureGap=4;jiggle=2;curveFitting=1;orthogonalLoop=1;jettySize=auto;html=1;exitX=0.5;exitY=1;exitDx=0;exitDy=0;entryX=0.5;entryY=0;entryDx=0;entryDy=0;strokeColor=#E07A5F;fontFamily=Architects Daughter;fontSource=https%3A%2F%2Ffonts.googleapis.com%2Fcss%3Ffamily%3DArchitects%2BDaughter;fontColor=#393C56;fillColor=#F2CC8F;" edge="1" parent="1" source="twknoeJkFPn5ZfpLh6MR-42" target="twknoeJkFPn5ZfpLh6MR-44">
          <mxGeometry relative="1" as="geometry" />
        </mxCell>
        <mxCell id="twknoeJkFPn5ZfpLh6MR-42" value="&lt;font style=&quot;font-size: 8px;&quot;&gt;Store the value in the database&lt;/font&gt;" style="rounded=1;whiteSpace=wrap;html=1;sketch=1;curveFitting=1;jiggle=2;labelBackgroundColor=none;fillColor=#F2CC8F;strokeColor=#E07A5F;fontColor=#393C56;" vertex="1" parent="1">
          <mxGeometry x="300" y="340" width="70" height="31.25" as="geometry" />
        </mxCell>
        <mxCell id="twknoeJkFPn5ZfpLh6MR-47" style="edgeStyle=orthogonalEdgeStyle;rounded=1;sketch=1;hachureGap=4;jiggle=2;curveFitting=1;orthogonalLoop=1;jettySize=auto;html=1;exitX=0;exitY=0.5;exitDx=0;exitDy=0;strokeColor=#E07A5F;fontFamily=Architects Daughter;fontSource=https%3A%2F%2Ffonts.googleapis.com%2Fcss%3Ffamily%3DArchitects%2BDaughter;fontColor=#393C56;fillColor=#F2CC8F;entryX=0.5;entryY=0;entryDx=0;entryDy=0;" edge="1" parent="1" source="twknoeJkFPn5ZfpLh6MR-44" target="twknoeJkFPn5ZfpLh6MR-24">
          <mxGeometry relative="1" as="geometry">
            <mxPoint x="770" y="20" as="targetPoint" />
            <Array as="points">
              <mxPoint x="280" y="416" />
              <mxPoint x="280" y="20" />
              <mxPoint x="768" y="20" />
            </Array>
          </mxGeometry>
        </mxCell>
        <mxCell id="twknoeJkFPn5ZfpLh6MR-44" value="&lt;font style=&quot;font-size: 8px;&quot;&gt;Send Confirmation to the Client&lt;/font&gt;" style="rounded=1;whiteSpace=wrap;html=1;sketch=1;curveFitting=1;jiggle=2;labelBackgroundColor=none;fillColor=#F2CC8F;strokeColor=#E07A5F;fontColor=#393C56;" vertex="1" parent="1">
          <mxGeometry x="300" y="400" width="70" height="31.25" as="geometry" />
        </mxCell>
      </root>
    </mxGraphModel>
  </diagram>
</mxfile>
